<mxfile host="app.diagrams.net" modified="2022-07-27T11:39:22.994Z" agent="5.0 (Macintosh; Intel Mac OS X 10_15_7) AppleWebKit/537.36 (KHTML, like Gecko) Chrome/103.0.0.0 Safari/537.36" etag="gIiDMQQyIoiZq9lx2Aas" version="20.2.0" type="github">
  <diagram id="EtCYZmObK3fiuL2SrTsO" name="第 1 页">
    <mxGraphModel dx="1449" dy="690" grid="1" gridSize="10" guides="1" tooltips="1" connect="1" arrows="1" fold="1" page="1" pageScale="1" pageWidth="827" pageHeight="1169" math="0" shadow="0">
      <root>
        <mxCell id="0" />
        <mxCell id="1" parent="0" />
        <mxCell id="TIlVDAgi_fyK-r-m1-jm-10" value="&lt;h1&gt;TaskExecutionServer 相关设计&lt;/h1&gt;&lt;p&gt;Lorem ipsum dolor sit amet, consectetur adipisicing elit, sed do eiusmod tempor incididunt ut labore et dolore magna aliqua.&lt;/p&gt;" style="text;html=1;strokeColor=none;fillColor=none;spacing=5;spacingTop=-20;whiteSpace=wrap;overflow=hidden;rounded=0;sketch=1;hachureGap=4;fontFamily=Architects Daughter;fontSource=https%3A%2F%2Ffonts.googleapis.com%2Fcss%3Ffamily%3DArchitects%2BDaughter;fontSize=10;" vertex="1" parent="1">
          <mxGeometry x="10" y="30" width="490" height="130" as="geometry" />
        </mxCell>
        <mxCell id="TIlVDAgi_fyK-r-m1-jm-13" value="" style="group" vertex="1" connectable="0" parent="1">
          <mxGeometry x="430" y="250" width="186" height="180" as="geometry" />
        </mxCell>
        <mxCell id="TIlVDAgi_fyK-r-m1-jm-2" value="" style="rounded=1;whiteSpace=wrap;html=1;sketch=1;hachureGap=4;fontFamily=Architects Daughter;fontSource=https%3A%2F%2Ffonts.googleapis.com%2Fcss%3Ffamily%3DArchitects%2BDaughter;fontSize=10;" vertex="1" parent="TIlVDAgi_fyK-r-m1-jm-13">
          <mxGeometry width="186" height="180" as="geometry" />
        </mxCell>
        <mxCell id="TIlVDAgi_fyK-r-m1-jm-8" value="TaskGroup" style="text;html=1;strokeColor=none;fillColor=none;align=center;verticalAlign=middle;whiteSpace=wrap;rounded=0;sketch=1;hachureGap=4;fontFamily=Architects Daughter;fontSource=https%3A%2F%2Ffonts.googleapis.com%2Fcss%3Ffamily%3DArchitects%2BDaughter;fontSize=10;" vertex="1" parent="TIlVDAgi_fyK-r-m1-jm-13">
          <mxGeometry x="20" y="20" width="60" height="30" as="geometry" />
        </mxCell>
        <mxCell id="TIlVDAgi_fyK-r-m1-jm-9" value="task" style="rounded=1;whiteSpace=wrap;html=1;sketch=1;hachureGap=4;fontFamily=Architects Daughter;fontSource=https%3A%2F%2Ffonts.googleapis.com%2Fcss%3Ffamily%3DArchitects%2BDaughter;fontSize=10;" vertex="1" parent="TIlVDAgi_fyK-r-m1-jm-13">
          <mxGeometry x="50" y="60" width="120" height="30" as="geometry" />
        </mxCell>
        <mxCell id="TIlVDAgi_fyK-r-m1-jm-11" value="task" style="rounded=1;whiteSpace=wrap;html=1;sketch=1;hachureGap=4;fontFamily=Architects Daughter;fontSource=https%3A%2F%2Ffonts.googleapis.com%2Fcss%3Ffamily%3DArchitects%2BDaughter;fontSize=10;" vertex="1" parent="TIlVDAgi_fyK-r-m1-jm-13">
          <mxGeometry x="50" y="140" width="120" height="30" as="geometry" />
        </mxCell>
        <mxCell id="TIlVDAgi_fyK-r-m1-jm-12" value="task" style="rounded=1;whiteSpace=wrap;html=1;sketch=1;hachureGap=4;fontFamily=Architects Daughter;fontSource=https%3A%2F%2Ffonts.googleapis.com%2Fcss%3Ffamily%3DArchitects%2BDaughter;fontSize=10;" vertex="1" parent="TIlVDAgi_fyK-r-m1-jm-13">
          <mxGeometry x="50" y="100" width="120" height="30" as="geometry" />
        </mxCell>
        <mxCell id="TIlVDAgi_fyK-r-m1-jm-20" value="" style="edgeStyle=orthogonalEdgeStyle;curved=1;rounded=0;sketch=1;hachureGap=4;orthogonalLoop=1;jettySize=auto;html=1;fontFamily=Architects Daughter;fontSource=https%3A%2F%2Ffonts.googleapis.com%2Fcss%3Ffamily%3DArchitects%2BDaughter;fontSize=10;endArrow=open;startSize=14;endSize=14;sourcePerimeterSpacing=8;targetPerimeterSpacing=8;" edge="1" parent="1" source="TIlVDAgi_fyK-r-m1-jm-18" target="TIlVDAgi_fyK-r-m1-jm-19">
          <mxGeometry relative="1" as="geometry" />
        </mxCell>
        <mxCell id="TIlVDAgi_fyK-r-m1-jm-18" value="Start" style="rounded=1;whiteSpace=wrap;html=1;sketch=1;hachureGap=4;fontFamily=Architects Daughter;fontSource=https%3A%2F%2Ffonts.googleapis.com%2Fcss%3Ffamily%3DArchitects%2BDaughter;fontSize=10;fillColor=none;" vertex="1" parent="1">
          <mxGeometry x="130" y="555" width="120" height="30" as="geometry" />
        </mxCell>
        <mxCell id="TIlVDAgi_fyK-r-m1-jm-22" value="" style="edgeStyle=orthogonalEdgeStyle;curved=1;rounded=0;sketch=1;hachureGap=4;orthogonalLoop=1;jettySize=auto;html=1;fontFamily=Architects Daughter;fontSource=https%3A%2F%2Ffonts.googleapis.com%2Fcss%3Ffamily%3DArchitects%2BDaughter;fontSize=10;endArrow=open;startSize=14;endSize=14;sourcePerimeterSpacing=8;targetPerimeterSpacing=8;" edge="1" parent="1" source="TIlVDAgi_fyK-r-m1-jm-19" target="TIlVDAgi_fyK-r-m1-jm-21">
          <mxGeometry relative="1" as="geometry" />
        </mxCell>
        <mxCell id="TIlVDAgi_fyK-r-m1-jm-19" value="Call()" style="rounded=1;whiteSpace=wrap;html=1;fontSize=10;fontFamily=Architects Daughter;fillColor=none;sketch=1;hachureGap=4;fontSource=https%3A%2F%2Ffonts.googleapis.com%2Fcss%3Ffamily%3DArchitects%2BDaughter;" vertex="1" parent="1">
          <mxGeometry x="130" y="635" width="120" height="60" as="geometry" />
        </mxCell>
        <mxCell id="TIlVDAgi_fyK-r-m1-jm-34" value="No" style="edgeStyle=orthogonalEdgeStyle;curved=1;rounded=0;sketch=1;hachureGap=4;orthogonalLoop=1;jettySize=auto;html=1;entryX=1;entryY=0.5;entryDx=0;entryDy=0;fontFamily=Architects Daughter;fontSource=https%3A%2F%2Ffonts.googleapis.com%2Fcss%3Ffamily%3DArchitects%2BDaughter;fontSize=10;endArrow=open;startSize=14;endSize=14;sourcePerimeterSpacing=8;targetPerimeterSpacing=8;exitX=1;exitY=0.5;exitDx=0;exitDy=0;" edge="1" parent="1" source="TIlVDAgi_fyK-r-m1-jm-21" target="TIlVDAgi_fyK-r-m1-jm-19">
          <mxGeometry relative="1" as="geometry">
            <Array as="points">
              <mxPoint x="280" y="770" />
              <mxPoint x="280" y="665" />
            </Array>
          </mxGeometry>
        </mxCell>
        <mxCell id="TIlVDAgi_fyK-r-m1-jm-36" value="" style="edgeStyle=orthogonalEdgeStyle;curved=1;rounded=0;sketch=1;hachureGap=4;orthogonalLoop=1;jettySize=auto;html=1;fontFamily=Architects Daughter;fontSource=https%3A%2F%2Ffonts.googleapis.com%2Fcss%3Ffamily%3DArchitects%2BDaughter;fontSize=10;endArrow=open;startSize=14;endSize=14;sourcePerimeterSpacing=8;targetPerimeterSpacing=8;" edge="1" parent="1" source="TIlVDAgi_fyK-r-m1-jm-21" target="TIlVDAgi_fyK-r-m1-jm-35">
          <mxGeometry relative="1" as="geometry" />
        </mxCell>
        <mxCell id="TIlVDAgi_fyK-r-m1-jm-47" value="&lt;font style=&quot;font-size: 12px;&quot;&gt;YES&lt;/font&gt;" style="edgeLabel;html=1;align=center;verticalAlign=middle;resizable=0;points=[];fontSize=18;fontFamily=Architects Daughter;" vertex="1" connectable="0" parent="TIlVDAgi_fyK-r-m1-jm-36">
          <mxGeometry x="-0.6075" y="-1" relative="1" as="geometry">
            <mxPoint as="offset" />
          </mxGeometry>
        </mxCell>
        <mxCell id="TIlVDAgi_fyK-r-m1-jm-21" value="&lt;span style=&quot;caret-color: rgb(61, 61, 61); color: rgb(61, 61, 61); font-family: Arial, sans-serif; font-size: 12px; text-align: start; text-size-adjust: auto;&quot;&gt;complete？&lt;/span&gt;" style="rhombus;whiteSpace=wrap;html=1;fontSize=10;fontFamily=Architects Daughter;fillColor=none;rounded=1;sketch=1;hachureGap=4;fontSource=https%3A%2F%2Ffonts.googleapis.com%2Fcss%3Ffamily%3DArchitects%2BDaughter;" vertex="1" parent="1">
          <mxGeometry x="130" y="746" width="120" height="50" as="geometry" />
        </mxCell>
        <mxCell id="TIlVDAgi_fyK-r-m1-jm-35" value="End" style="whiteSpace=wrap;html=1;fontSize=10;fontFamily=Architects Daughter;fillColor=none;rounded=1;sketch=1;hachureGap=4;fontSource=https%3A%2F%2Ffonts.googleapis.com%2Fcss%3Ffamily%3DArchitects%2BDaughter;" vertex="1" parent="1">
          <mxGeometry x="130" y="847" width="120" height="25" as="geometry" />
        </mxCell>
        <mxCell id="TIlVDAgi_fyK-r-m1-jm-38" value="&lt;h1&gt;Heading&lt;/h1&gt;&lt;p&gt;Lorem ipsum dolor sit amet, consectetur adipisicing elit, sed do eiusmod tempor incididunt ut labore et dolore magna aliqua.&lt;/p&gt;" style="text;html=1;strokeColor=none;fillColor=none;spacing=5;spacingTop=-20;whiteSpace=wrap;overflow=hidden;rounded=0;sketch=1;hachureGap=4;fontFamily=Architects Daughter;fontSource=https%3A%2F%2Ffonts.googleapis.com%2Fcss%3Ffamily%3DArchitects%2BDaughter;fontSize=10;" vertex="1" parent="1">
          <mxGeometry x="100" y="280" width="190" height="120" as="geometry" />
        </mxCell>
        <mxCell id="TIlVDAgi_fyK-r-m1-jm-43" value="" style="edgeStyle=orthogonalEdgeStyle;curved=1;rounded=0;sketch=1;hachureGap=4;orthogonalLoop=1;jettySize=auto;html=1;fontFamily=Architects Daughter;fontSource=https%3A%2F%2Ffonts.googleapis.com%2Fcss%3Ffamily%3DArchitects%2BDaughter;fontSize=18;endArrow=open;startSize=14;endSize=14;sourcePerimeterSpacing=8;targetPerimeterSpacing=8;" edge="1" parent="1" source="TIlVDAgi_fyK-r-m1-jm-39" target="TIlVDAgi_fyK-r-m1-jm-41">
          <mxGeometry relative="1" as="geometry" />
        </mxCell>
        <mxCell id="TIlVDAgi_fyK-r-m1-jm-39" value="task&lt;font style=&quot;font-size: 18px;&quot;&gt;&lt;b style=&quot;&quot;&gt;1&lt;/b&gt;&lt;/font&gt;.Call()" style="rounded=1;whiteSpace=wrap;html=1;sketch=1;hachureGap=4;fontFamily=Architects Daughter;fontSource=https%3A%2F%2Ffonts.googleapis.com%2Fcss%3Ffamily%3DArchitects%2BDaughter;fontSize=10;fillColor=none;" vertex="1" parent="1">
          <mxGeometry x="470" y="575" width="130" height="35" as="geometry" />
        </mxCell>
        <mxCell id="TIlVDAgi_fyK-r-m1-jm-45" style="edgeStyle=orthogonalEdgeStyle;curved=1;rounded=0;sketch=1;hachureGap=4;orthogonalLoop=1;jettySize=auto;html=1;entryX=0.5;entryY=0;entryDx=0;entryDy=0;fontFamily=Architects Daughter;fontSource=https%3A%2F%2Ffonts.googleapis.com%2Fcss%3Ffamily%3DArchitects%2BDaughter;fontSize=18;endArrow=open;startSize=14;endSize=14;sourcePerimeterSpacing=8;targetPerimeterSpacing=8;" edge="1" parent="1" source="TIlVDAgi_fyK-r-m1-jm-40" target="TIlVDAgi_fyK-r-m1-jm-39">
          <mxGeometry relative="1" as="geometry">
            <Array as="points">
              <mxPoint x="535" y="780" />
              <mxPoint x="650" y="780" />
              <mxPoint x="650" y="545" />
              <mxPoint x="535" y="545" />
            </Array>
          </mxGeometry>
        </mxCell>
        <mxCell id="TIlVDAgi_fyK-r-m1-jm-46" value="&lt;font style=&quot;font-size: 12px;&quot;&gt;Thread&lt;/font&gt;" style="edgeLabel;html=1;align=center;verticalAlign=middle;resizable=0;points=[];fontSize=18;fontFamily=Architects Daughter;" vertex="1" connectable="0" parent="TIlVDAgi_fyK-r-m1-jm-45">
          <mxGeometry x="-0.0487" y="-1" relative="1" as="geometry">
            <mxPoint y="1" as="offset" />
          </mxGeometry>
        </mxCell>
        <mxCell id="TIlVDAgi_fyK-r-m1-jm-40" value="task&lt;font style=&quot;font-size: 18px;&quot;&gt;&lt;b style=&quot;&quot;&gt;3&lt;/b&gt;&lt;/font&gt;.Call()" style="rounded=1;whiteSpace=wrap;html=1;sketch=1;hachureGap=4;fontFamily=Architects Daughter;fontSource=https%3A%2F%2Ffonts.googleapis.com%2Fcss%3Ffamily%3DArchitects%2BDaughter;fontSize=10;fillColor=none;" vertex="1" parent="1">
          <mxGeometry x="470" y="720" width="130" height="35" as="geometry" />
        </mxCell>
        <mxCell id="TIlVDAgi_fyK-r-m1-jm-44" value="" style="edgeStyle=orthogonalEdgeStyle;curved=1;rounded=0;sketch=1;hachureGap=4;orthogonalLoop=1;jettySize=auto;html=1;fontFamily=Architects Daughter;fontSource=https%3A%2F%2Ffonts.googleapis.com%2Fcss%3Ffamily%3DArchitects%2BDaughter;fontSize=18;endArrow=open;startSize=14;endSize=14;sourcePerimeterSpacing=8;targetPerimeterSpacing=8;" edge="1" parent="1" source="TIlVDAgi_fyK-r-m1-jm-41" target="TIlVDAgi_fyK-r-m1-jm-40">
          <mxGeometry relative="1" as="geometry" />
        </mxCell>
        <mxCell id="TIlVDAgi_fyK-r-m1-jm-41" value="task&lt;font style=&quot;font-size: 18px;&quot;&gt;&lt;b style=&quot;&quot;&gt;2&lt;/b&gt;&lt;/font&gt;.Call()" style="rounded=1;whiteSpace=wrap;html=1;sketch=1;hachureGap=4;fontFamily=Architects Daughter;fontSource=https%3A%2F%2Ffonts.googleapis.com%2Fcss%3Ffamily%3DArchitects%2BDaughter;fontSize=10;fillColor=none;" vertex="1" parent="1">
          <mxGeometry x="470" y="647.5" width="130" height="35" as="geometry" />
        </mxCell>
        <mxCell id="TIlVDAgi_fyK-r-m1-jm-64" value="" style="rounded=1;whiteSpace=wrap;html=1;sketch=1;hachureGap=4;fontFamily=Architects Daughter;fontSource=https%3A%2F%2Ffonts.googleapis.com%2Fcss%3Ffamily%3DArchitects%2BDaughter;fontSize=12;fillColor=none;" vertex="1" parent="1">
          <mxGeometry x="159" y="1120" width="560" height="70" as="geometry" />
        </mxCell>
        <mxCell id="TIlVDAgi_fyK-r-m1-jm-66" value="task1" style="ellipse;whiteSpace=wrap;html=1;sketch=1;hachureGap=4;fontFamily=Architects Daughter;fontSource=https%3A%2F%2Ffonts.googleapis.com%2Fcss%3Ffamily%3DArchitects%2BDaughter;fontSize=12;fillColor=none;" vertex="1" parent="1">
          <mxGeometry x="189" y="1135" width="50" height="40" as="geometry" />
        </mxCell>
        <mxCell id="TIlVDAgi_fyK-r-m1-jm-67" value="task1" style="ellipse;whiteSpace=wrap;html=1;sketch=1;hachureGap=4;fontFamily=Architects Daughter;fontSource=https%3A%2F%2Ffonts.googleapis.com%2Fcss%3Ffamily%3DArchitects%2BDaughter;fontSize=12;fillColor=none;" vertex="1" parent="1">
          <mxGeometry x="267" y="1135" width="50" height="40" as="geometry" />
        </mxCell>
        <mxCell id="TIlVDAgi_fyK-r-m1-jm-68" value="task1" style="ellipse;whiteSpace=wrap;html=1;sketch=1;hachureGap=4;fontFamily=Architects Daughter;fontSource=https%3A%2F%2Ffonts.googleapis.com%2Fcss%3Ffamily%3DArchitects%2BDaughter;fontSize=12;fillColor=none;" vertex="1" parent="1">
          <mxGeometry x="347" y="1135" width="50" height="40" as="geometry" />
        </mxCell>
        <mxCell id="TIlVDAgi_fyK-r-m1-jm-69" value="task1" style="ellipse;whiteSpace=wrap;html=1;sketch=1;hachureGap=4;fontFamily=Architects Daughter;fontSource=https%3A%2F%2Ffonts.googleapis.com%2Fcss%3Ffamily%3DArchitects%2BDaughter;fontSize=12;fillColor=none;" vertex="1" parent="1">
          <mxGeometry x="427" y="1135" width="50" height="40" as="geometry" />
        </mxCell>
        <mxCell id="TIlVDAgi_fyK-r-m1-jm-76" value="" style="rounded=1;whiteSpace=wrap;html=1;sketch=1;hachureGap=4;fontFamily=Architects Daughter;fontSource=https%3A%2F%2Ffonts.googleapis.com%2Fcss%3Ffamily%3DArchitects%2BDaughter;fontSize=12;fillColor=none;" vertex="1" parent="1">
          <mxGeometry x="161" y="1290" width="560" height="70" as="geometry" />
        </mxCell>
        <mxCell id="TIlVDAgi_fyK-r-m1-jm-78" style="edgeStyle=orthogonalEdgeStyle;curved=1;rounded=0;sketch=1;hachureGap=4;orthogonalLoop=1;jettySize=auto;html=1;entryX=0;entryY=0.25;entryDx=0;entryDy=0;fontFamily=Architects Daughter;fontSource=https%3A%2F%2Ffonts.googleapis.com%2Fcss%3Ffamily%3DArchitects%2BDaughter;fontSize=12;endArrow=open;startSize=14;endSize=14;sourcePerimeterSpacing=8;targetPerimeterSpacing=8;" edge="1" parent="1" source="TIlVDAgi_fyK-r-m1-jm-77" target="TIlVDAgi_fyK-r-m1-jm-64">
          <mxGeometry relative="1" as="geometry" />
        </mxCell>
        <mxCell id="TIlVDAgi_fyK-r-m1-jm-77" value="TaskQueue" style="text;html=1;strokeColor=none;fillColor=none;align=center;verticalAlign=middle;whiteSpace=wrap;rounded=0;sketch=1;hachureGap=4;fontFamily=Architects Daughter;fontSource=https%3A%2F%2Ffonts.googleapis.com%2Fcss%3Ffamily%3DArchitects%2BDaughter;fontSize=12;" vertex="1" parent="1">
          <mxGeometry x="37" y="1135" width="50" height="30" as="geometry" />
        </mxCell>
        <mxCell id="TIlVDAgi_fyK-r-m1-jm-81" style="edgeStyle=orthogonalEdgeStyle;curved=1;rounded=0;sketch=1;hachureGap=4;orthogonalLoop=1;jettySize=auto;html=1;entryX=0.042;entryY=-0.031;entryDx=0;entryDy=0;entryPerimeter=0;fontFamily=Architects Daughter;fontSource=https%3A%2F%2Ffonts.googleapis.com%2Fcss%3Ffamily%3DArchitects%2BDaughter;fontSize=12;endArrow=open;startSize=14;endSize=14;sourcePerimeterSpacing=8;targetPerimeterSpacing=8;" edge="1" parent="1" source="TIlVDAgi_fyK-r-m1-jm-79" target="TIlVDAgi_fyK-r-m1-jm-64">
          <mxGeometry relative="1" as="geometry" />
        </mxCell>
        <mxCell id="TIlVDAgi_fyK-r-m1-jm-79" value="Head" style="text;html=1;strokeColor=none;fillColor=none;align=center;verticalAlign=middle;whiteSpace=wrap;rounded=0;sketch=1;hachureGap=4;fontFamily=Architects Daughter;fontSource=https%3A%2F%2Ffonts.googleapis.com%2Fcss%3Ffamily%3DArchitects%2BDaughter;fontSize=12;" vertex="1" parent="1">
          <mxGeometry x="159" y="1060" width="50" height="20" as="geometry" />
        </mxCell>
        <mxCell id="TIlVDAgi_fyK-r-m1-jm-85" value="" style="edgeStyle=orthogonalEdgeStyle;curved=1;rounded=0;sketch=1;hachureGap=4;orthogonalLoop=1;jettySize=auto;html=1;fontFamily=Architects Daughter;fontSource=https%3A%2F%2Ffonts.googleapis.com%2Fcss%3Ffamily%3DArchitects%2BDaughter;fontSize=12;endArrow=open;startSize=14;endSize=14;sourcePerimeterSpacing=8;targetPerimeterSpacing=8;entryX=0.946;entryY=-0.043;entryDx=0;entryDy=0;entryPerimeter=0;" edge="1" parent="1" source="TIlVDAgi_fyK-r-m1-jm-84" target="TIlVDAgi_fyK-r-m1-jm-64">
          <mxGeometry relative="1" as="geometry" />
        </mxCell>
        <mxCell id="TIlVDAgi_fyK-r-m1-jm-84" value="Tail" style="text;html=1;strokeColor=none;fillColor=none;align=center;verticalAlign=middle;whiteSpace=wrap;rounded=0;sketch=1;hachureGap=4;fontFamily=Architects Daughter;fontSource=https%3A%2F%2Ffonts.googleapis.com%2Fcss%3Ffamily%3DArchitects%2BDaughter;fontSize=12;" vertex="1" parent="1">
          <mxGeometry x="659" y="1050" width="60" height="30" as="geometry" />
        </mxCell>
        <mxCell id="TIlVDAgi_fyK-r-m1-jm-86" value="thread1" style="rounded=1;whiteSpace=wrap;html=1;sketch=1;hachureGap=4;fontFamily=Architects Daughter;fontSource=https%3A%2F%2Ffonts.googleapis.com%2Fcss%3Ffamily%3DArchitects%2BDaughter;fontSize=12;fillColor=none;" vertex="1" parent="1">
          <mxGeometry x="191" y="1310" width="50" height="40" as="geometry" />
        </mxCell>
        <mxCell id="TIlVDAgi_fyK-r-m1-jm-87" value="thread1" style="rounded=1;whiteSpace=wrap;html=1;sketch=1;hachureGap=4;fontFamily=Architects Daughter;fontSource=https%3A%2F%2Ffonts.googleapis.com%2Fcss%3Ffamily%3DArchitects%2BDaughter;fontSize=12;fillColor=none;" vertex="1" parent="1">
          <mxGeometry x="269" y="1310" width="50" height="40" as="geometry" />
        </mxCell>
        <mxCell id="TIlVDAgi_fyK-r-m1-jm-88" value="thread1" style="rounded=1;whiteSpace=wrap;html=1;sketch=1;hachureGap=4;fontFamily=Architects Daughter;fontSource=https%3A%2F%2Ffonts.googleapis.com%2Fcss%3Ffamily%3DArchitects%2BDaughter;fontSize=12;fillColor=none;" vertex="1" parent="1">
          <mxGeometry x="349" y="1310" width="50" height="40" as="geometry" />
        </mxCell>
        <mxCell id="TIlVDAgi_fyK-r-m1-jm-90" value="task1" style="ellipse;whiteSpace=wrap;html=1;sketch=1;hachureGap=4;fontFamily=Architects Daughter;fontSource=https%3A%2F%2Ffonts.googleapis.com%2Fcss%3Ffamily%3DArchitects%2BDaughter;fontSize=12;fillColor=none;" vertex="1" parent="1">
          <mxGeometry x="497" y="1135" width="50" height="40" as="geometry" />
        </mxCell>
        <mxCell id="TIlVDAgi_fyK-r-m1-jm-93" style="edgeStyle=orthogonalEdgeStyle;curved=1;rounded=0;sketch=1;hachureGap=4;orthogonalLoop=1;jettySize=auto;html=1;entryX=0;entryY=0.25;entryDx=0;entryDy=0;fontFamily=Architects Daughter;fontSource=https%3A%2F%2Ffonts.googleapis.com%2Fcss%3Ffamily%3DArchitects%2BDaughter;fontSize=12;endArrow=open;startSize=14;endSize=14;sourcePerimeterSpacing=8;targetPerimeterSpacing=8;" edge="1" parent="1" source="TIlVDAgi_fyK-r-m1-jm-92" target="TIlVDAgi_fyK-r-m1-jm-76">
          <mxGeometry relative="1" as="geometry" />
        </mxCell>
        <mxCell id="TIlVDAgi_fyK-r-m1-jm-92" value="ThreadPool" style="text;html=1;strokeColor=none;fillColor=none;align=center;verticalAlign=middle;whiteSpace=wrap;rounded=0;sketch=1;hachureGap=4;fontFamily=Architects Daughter;fontSource=https%3A%2F%2Ffonts.googleapis.com%2Fcss%3Ffamily%3DArchitects%2BDaughter;fontSize=12;" vertex="1" parent="1">
          <mxGeometry x="37" y="1310" width="50" height="30" as="geometry" />
        </mxCell>
        <mxCell id="TIlVDAgi_fyK-r-m1-jm-94" value="Step1" style="text;html=1;strokeColor=none;fillColor=none;align=center;verticalAlign=middle;whiteSpace=wrap;rounded=0;sketch=1;hachureGap=4;fontFamily=Architects Daughter;fontSource=https%3A%2F%2Ffonts.googleapis.com%2Fcss%3Ffamily%3DArchitects%2BDaughter;fontSize=12;" vertex="1" parent="1">
          <mxGeometry x="32" y="1510" width="60" height="30" as="geometry" />
        </mxCell>
        <mxCell id="TIlVDAgi_fyK-r-m1-jm-95" value="" style="rounded=1;whiteSpace=wrap;html=1;sketch=1;hachureGap=4;fontFamily=Architects Daughter;fontSource=https%3A%2F%2Ffonts.googleapis.com%2Fcss%3Ffamily%3DArchitects%2BDaughter;fontSize=12;fillColor=none;" vertex="1" parent="1">
          <mxGeometry x="169" y="1632" width="560" height="70" as="geometry" />
        </mxCell>
        <mxCell id="TIlVDAgi_fyK-r-m1-jm-117" style="edgeStyle=orthogonalEdgeStyle;curved=1;rounded=0;sketch=1;hachureGap=4;orthogonalLoop=1;jettySize=auto;html=1;entryX=1;entryY=0.5;entryDx=0;entryDy=0;fontFamily=Architects Daughter;fontSource=https%3A%2F%2Ffonts.googleapis.com%2Fcss%3Ffamily%3DArchitects%2BDaughter;fontSize=12;endArrow=open;startSize=14;endSize=14;sourcePerimeterSpacing=8;targetPerimeterSpacing=8;" edge="1" parent="1" source="TIlVDAgi_fyK-r-m1-jm-96" target="TIlVDAgi_fyK-r-m1-jm-114">
          <mxGeometry relative="1" as="geometry" />
        </mxCell>
        <mxCell id="TIlVDAgi_fyK-r-m1-jm-96" value="task1" style="ellipse;whiteSpace=wrap;html=1;sketch=1;hachureGap=4;fontFamily=Architects Daughter;fontSource=https%3A%2F%2Ffonts.googleapis.com%2Fcss%3Ffamily%3DArchitects%2BDaughter;fontSize=12;fillColor=none;" vertex="1" parent="1">
          <mxGeometry x="199" y="1647" width="50" height="40" as="geometry" />
        </mxCell>
        <mxCell id="TIlVDAgi_fyK-r-m1-jm-97" value="task1" style="ellipse;whiteSpace=wrap;html=1;sketch=1;hachureGap=4;fontFamily=Architects Daughter;fontSource=https%3A%2F%2Ffonts.googleapis.com%2Fcss%3Ffamily%3DArchitects%2BDaughter;fontSize=12;fillColor=none;" vertex="1" parent="1">
          <mxGeometry x="277" y="1647" width="50" height="40" as="geometry" />
        </mxCell>
        <mxCell id="TIlVDAgi_fyK-r-m1-jm-98" value="task1" style="ellipse;whiteSpace=wrap;html=1;sketch=1;hachureGap=4;fontFamily=Architects Daughter;fontSource=https%3A%2F%2Ffonts.googleapis.com%2Fcss%3Ffamily%3DArchitects%2BDaughter;fontSize=12;fillColor=none;" vertex="1" parent="1">
          <mxGeometry x="357" y="1647" width="50" height="40" as="geometry" />
        </mxCell>
        <mxCell id="TIlVDAgi_fyK-r-m1-jm-99" value="task1" style="ellipse;whiteSpace=wrap;html=1;sketch=1;hachureGap=4;fontFamily=Architects Daughter;fontSource=https%3A%2F%2Ffonts.googleapis.com%2Fcss%3Ffamily%3DArchitects%2BDaughter;fontSize=12;fillColor=none;" vertex="1" parent="1">
          <mxGeometry x="437" y="1647" width="50" height="40" as="geometry" />
        </mxCell>
        <mxCell id="TIlVDAgi_fyK-r-m1-jm-100" value="" style="rounded=1;whiteSpace=wrap;html=1;sketch=1;hachureGap=4;fontFamily=Architects Daughter;fontSource=https%3A%2F%2Ffonts.googleapis.com%2Fcss%3Ffamily%3DArchitects%2BDaughter;fontSize=12;fillColor=none;" vertex="1" parent="1">
          <mxGeometry x="171" y="1802" width="560" height="70" as="geometry" />
        </mxCell>
        <mxCell id="TIlVDAgi_fyK-r-m1-jm-103" style="edgeStyle=orthogonalEdgeStyle;curved=1;rounded=0;sketch=1;hachureGap=4;orthogonalLoop=1;jettySize=auto;html=1;entryX=0.042;entryY=-0.031;entryDx=0;entryDy=0;entryPerimeter=0;fontFamily=Architects Daughter;fontSource=https%3A%2F%2Ffonts.googleapis.com%2Fcss%3Ffamily%3DArchitects%2BDaughter;fontSize=12;endArrow=open;startSize=14;endSize=14;sourcePerimeterSpacing=8;targetPerimeterSpacing=8;" edge="1" parent="1" source="TIlVDAgi_fyK-r-m1-jm-104" target="TIlVDAgi_fyK-r-m1-jm-95">
          <mxGeometry relative="1" as="geometry" />
        </mxCell>
        <mxCell id="TIlVDAgi_fyK-r-m1-jm-104" value="Head" style="text;html=1;strokeColor=none;fillColor=none;align=center;verticalAlign=middle;whiteSpace=wrap;rounded=0;sketch=1;hachureGap=4;fontFamily=Architects Daughter;fontSource=https%3A%2F%2Ffonts.googleapis.com%2Fcss%3Ffamily%3DArchitects%2BDaughter;fontSize=12;" vertex="1" parent="1">
          <mxGeometry x="169" y="1572" width="50" height="20" as="geometry" />
        </mxCell>
        <mxCell id="TIlVDAgi_fyK-r-m1-jm-105" value="" style="edgeStyle=orthogonalEdgeStyle;curved=1;rounded=0;sketch=1;hachureGap=4;orthogonalLoop=1;jettySize=auto;html=1;fontFamily=Architects Daughter;fontSource=https%3A%2F%2Ffonts.googleapis.com%2Fcss%3Ffamily%3DArchitects%2BDaughter;fontSize=12;endArrow=open;startSize=14;endSize=14;sourcePerimeterSpacing=8;targetPerimeterSpacing=8;entryX=0.946;entryY=-0.043;entryDx=0;entryDy=0;entryPerimeter=0;" edge="1" parent="1" source="TIlVDAgi_fyK-r-m1-jm-106" target="TIlVDAgi_fyK-r-m1-jm-95">
          <mxGeometry relative="1" as="geometry" />
        </mxCell>
        <mxCell id="TIlVDAgi_fyK-r-m1-jm-106" value="Tail" style="text;html=1;strokeColor=none;fillColor=none;align=center;verticalAlign=middle;whiteSpace=wrap;rounded=0;sketch=1;hachureGap=4;fontFamily=Architects Daughter;fontSource=https%3A%2F%2Ffonts.googleapis.com%2Fcss%3Ffamily%3DArchitects%2BDaughter;fontSize=12;" vertex="1" parent="1">
          <mxGeometry x="669" y="1562" width="60" height="30" as="geometry" />
        </mxCell>
        <mxCell id="TIlVDAgi_fyK-r-m1-jm-118" style="edgeStyle=orthogonalEdgeStyle;curved=1;rounded=0;sketch=1;hachureGap=4;orthogonalLoop=1;jettySize=auto;html=1;entryX=1;entryY=0.5;entryDx=0;entryDy=0;fontFamily=Architects Daughter;fontSource=https%3A%2F%2Ffonts.googleapis.com%2Fcss%3Ffamily%3DArchitects%2BDaughter;fontSize=12;endArrow=open;startSize=14;endSize=14;sourcePerimeterSpacing=8;targetPerimeterSpacing=8;" edge="1" parent="1" source="TIlVDAgi_fyK-r-m1-jm-107" target="TIlVDAgi_fyK-r-m1-jm-113">
          <mxGeometry relative="1" as="geometry" />
        </mxCell>
        <mxCell id="TIlVDAgi_fyK-r-m1-jm-107" value="thread1" style="rounded=1;whiteSpace=wrap;html=1;sketch=1;hachureGap=4;fontFamily=Architects Daughter;fontSource=https%3A%2F%2Ffonts.googleapis.com%2Fcss%3Ffamily%3DArchitects%2BDaughter;fontSize=12;fillColor=none;" vertex="1" parent="1">
          <mxGeometry x="201" y="1822" width="50" height="40" as="geometry" />
        </mxCell>
        <mxCell id="TIlVDAgi_fyK-r-m1-jm-108" value="thread1" style="rounded=1;whiteSpace=wrap;html=1;sketch=1;hachureGap=4;fontFamily=Architects Daughter;fontSource=https%3A%2F%2Ffonts.googleapis.com%2Fcss%3Ffamily%3DArchitects%2BDaughter;fontSize=12;fillColor=none;" vertex="1" parent="1">
          <mxGeometry x="279" y="1822" width="50" height="40" as="geometry" />
        </mxCell>
        <mxCell id="TIlVDAgi_fyK-r-m1-jm-109" value="thread1" style="rounded=1;whiteSpace=wrap;html=1;sketch=1;hachureGap=4;fontFamily=Architects Daughter;fontSource=https%3A%2F%2Ffonts.googleapis.com%2Fcss%3Ffamily%3DArchitects%2BDaughter;fontSize=12;fillColor=none;" vertex="1" parent="1">
          <mxGeometry x="359" y="1822" width="50" height="40" as="geometry" />
        </mxCell>
        <mxCell id="TIlVDAgi_fyK-r-m1-jm-110" value="task1" style="ellipse;whiteSpace=wrap;html=1;sketch=1;hachureGap=4;fontFamily=Architects Daughter;fontSource=https%3A%2F%2Ffonts.googleapis.com%2Fcss%3Ffamily%3DArchitects%2BDaughter;fontSize=12;fillColor=none;" vertex="1" parent="1">
          <mxGeometry x="507" y="1647" width="50" height="40" as="geometry" />
        </mxCell>
        <mxCell id="TIlVDAgi_fyK-r-m1-jm-113" value="thread1" style="rounded=1;whiteSpace=wrap;html=1;sketch=1;hachureGap=4;fontFamily=Architects Daughter;fontSource=https%3A%2F%2Ffonts.googleapis.com%2Fcss%3Ffamily%3DArchitects%2BDaughter;fontSize=12;fillColor=none;" vertex="1" parent="1">
          <mxGeometry x="92" y="1782" width="50" height="40" as="geometry" />
        </mxCell>
        <mxCell id="TIlVDAgi_fyK-r-m1-jm-114" value="task1" style="ellipse;whiteSpace=wrap;html=1;sketch=1;hachureGap=4;fontFamily=Architects Daughter;fontSource=https%3A%2F%2Ffonts.googleapis.com%2Fcss%3Ffamily%3DArchitects%2BDaughter;fontSize=12;fillColor=#7EA6E0;" vertex="1" parent="1">
          <mxGeometry x="87" y="1687" width="50" height="40" as="geometry" />
        </mxCell>
      </root>
    </mxGraphModel>
  </diagram>
</mxfile>
